<svg id="Layer_1" data-name="Layer 1" xmlns="http://www.w3.org/2000/svg" viewBox="0 0 365.25 69.19">
<defs>
	<style>
		.cls-1{fill:#343a40;}
		.cls-2{fill:#5AD3E5;}
	</style>
</defs>
<title>beheerapp</title>
<path class="cls-1" d="M37.49,39.68a23.94,23.94,0,0,1-1.33,8.21,17.35,17.35,0,0,1-3.85,6.26,17,17,0,0,1-6.19,4,23.27,23.27,0,0,1-8.35,1.4q-1.94,0-4.07-.18T9.52,58.9q-2.05-.29-3.92-.68t-3.31-.83V4.47L13,2.74V21.6a20.09,20.09,0,0,1,3.74-1.22,19.22,19.22,0,0,1,4.18-.43,17.1,17.1,0,0,1,7.13,1.4,14,14,0,0,1,5.18,4,18,18,0,0,1,3.17,6.23A28.39,28.39,0,0,1,37.49,39.68Zm-10.94-.29Q26.55,29,18.91,29a12.65,12.65,0,0,0-3.28.43A9.31,9.31,0,0,0,13,30.53V50q.79.15,2,.25t2.66.11a7.71,7.71,0,0,0,6.62-3A13.15,13.15,0,0,0,26.55,39.39Z" transform="translate(-2.28 -2.74)"/><path class="cls-1" d="M44,40a23.15,23.15,0,0,1,1.55-8.82,18.9,18.9,0,0,1,4.07-6.3A16.92,16.92,0,0,1,55.38,21a18.14,18.14,0,0,1,6.73-1.3q8.06,0,12.74,4.93t4.68,14.51q0,.94-.07,2.05t-.14,2H55a7.13,7.13,0,0,0,3.1,5.26,12.44,12.44,0,0,0,7.34,1.94,31.07,31.07,0,0,0,5.8-.54,21.9,21.9,0,0,0,4.64-1.33l1.44,8.71a14.84,14.84,0,0,1-2.3.86,30.15,30.15,0,0,1-3.2.76q-1.77.32-3.78.54a38,38,0,0,1-4,.22,23.87,23.87,0,0,1-8.89-1.51A17.32,17.32,0,0,1,48.83,54a16.42,16.42,0,0,1-3.67-6.23A24.67,24.67,0,0,1,44,40Zm25.2-4.1a11.14,11.14,0,0,0-.47-2.66,6.69,6.69,0,0,0-1.22-2.3,6.54,6.54,0,0,0-2.09-1.66,6.8,6.8,0,0,0-3.13-.65,7.2,7.2,0,0,0-3.1.61A6.41,6.41,0,0,0,57,30.82a7.25,7.25,0,0,0-1.33,2.34,15.35,15.35,0,0,0-.68,2.7Z" transform="translate(-2.28 -2.74)"/><path class="cls-1" d="M87.82,58.61V4.47L98.54,2.74V20.88a22.3,22.3,0,0,1,2.77-.68,17.42,17.42,0,0,1,3.28-.32,20.27,20.27,0,0,1,7.67,1.26,11.91,11.91,0,0,1,4.9,3.56,13.79,13.79,0,0,1,2.59,5.47,30.45,30.45,0,0,1,.76,7.06V58.61H109.78V38.53q0-5.18-1.33-7.34T103.51,29a13.75,13.75,0,0,0-2.7.25q-1.26.25-2.27.54v28.8Z" transform="translate(-2.28 -2.74)"/><path class="cls-1" d="M128.42,40A23.14,23.14,0,0,1,130,31.15a18.88,18.88,0,0,1,4.07-6.3,16.9,16.9,0,0,1,5.8-3.82,18.14,18.14,0,0,1,6.73-1.3q8.06,0,12.74,4.93T164,39.17q0,.94-.07,2.05t-.14,2H139.44a7.13,7.13,0,0,0,3.1,5.26,12.45,12.45,0,0,0,7.34,1.94,31.06,31.06,0,0,0,5.8-.54,21.89,21.89,0,0,0,4.64-1.33l1.44,8.71a14.85,14.85,0,0,1-2.3.86,30.21,30.21,0,0,1-3.2.76q-1.77.32-3.78.54a38,38,0,0,1-4,.22,23.87,23.87,0,0,1-8.89-1.51A17.32,17.32,0,0,1,133.28,54a16.43,16.43,0,0,1-3.67-6.23A24.67,24.67,0,0,1,128.42,40Zm25.2-4.1a11.14,11.14,0,0,0-.47-2.66,6.68,6.68,0,0,0-1.22-2.3,6.55,6.55,0,0,0-2.09-1.66,6.81,6.81,0,0,0-3.13-.65,7.21,7.21,0,0,0-3.1.61,6.4,6.4,0,0,0-2.16,1.62,7.25,7.25,0,0,0-1.33,2.34,15.31,15.31,0,0,0-.68,2.7Z" transform="translate(-2.28 -2.74)"/><path class="cls-1" d="M170.47,40A23.14,23.14,0,0,1,172,31.15a18.88,18.88,0,0,1,4.07-6.3,16.9,16.9,0,0,1,5.8-3.82,18.14,18.14,0,0,1,6.73-1.3q8.06,0,12.74,4.93T206,39.17q0,.94-.07,2.05t-.14,2H181.49a7.13,7.13,0,0,0,3.1,5.26,12.45,12.45,0,0,0,7.34,1.94,31.06,31.06,0,0,0,5.8-.54,21.89,21.89,0,0,0,4.64-1.33l1.44,8.71a14.85,14.85,0,0,1-2.3.86,30.21,30.21,0,0,1-3.2.76q-1.77.32-3.78.54a38,38,0,0,1-4,.22,23.87,23.87,0,0,1-8.89-1.51A17.32,17.32,0,0,1,175.33,54a16.43,16.43,0,0,1-3.67-6.23A24.67,24.67,0,0,1,170.47,40Zm25.2-4.1a11.14,11.14,0,0,0-.47-2.66,6.68,6.68,0,0,0-1.22-2.3,6.55,6.55,0,0,0-2.09-1.66,6.81,6.81,0,0,0-3.13-.65,7.21,7.21,0,0,0-3.1.61,6.4,6.4,0,0,0-2.16,1.62,7.25,7.25,0,0,0-1.33,2.34,15.31,15.31,0,0,0-.68,2.7Z" transform="translate(-2.28 -2.74)"/><path class="cls-1" d="M237.14,30.24q-1.44-.36-3.38-.76a21,21,0,0,0-4.18-.4,19.45,19.45,0,0,0-2.41.18,14.2,14.2,0,0,0-2.12.4V58.61H214.32V22.76a64.64,64.64,0,0,1,6.8-1.91,39.23,39.23,0,0,1,8.75-.9q.86,0,2.09.11t2.45.29q1.22.18,2.45.43a11.59,11.59,0,0,1,2.09.61Z" transform="translate(-2.28 -2.74)"/><path class="cls-2" d="M262.63,19.73a24.84,24.84,0,0,1,7.92,1.08,12.3,12.3,0,0,1,5.08,3.1,11.4,11.4,0,0,1,2.7,4.9,24.14,24.14,0,0,1,.79,6.41V57.53q-2.3.5-6.41,1.19a61.55,61.55,0,0,1-9.94.68,31.45,31.45,0,0,1-6.66-.65A14.43,14.43,0,0,1,251,56.63a9.71,9.71,0,0,1-3.31-3.85,13.29,13.29,0,0,1-1.15-5.83,11.05,11.05,0,0,1,1.33-5.62,10.26,10.26,0,0,1,3.56-3.67,16.13,16.13,0,0,1,5.11-2,28.72,28.72,0,0,1,6-.61,34,34,0,0,1,3.71.18,16.61,16.61,0,0,1,2.63.47v-1a5.94,5.94,0,0,0-1.66-4.39q-1.66-1.66-5.76-1.66a36.76,36.76,0,0,0-5.4.4,23.24,23.24,0,0,0-4.61,1.12L250,21.53q.93-.29,2.34-.61t3.06-.58q1.66-.25,3.49-.43T262.63,19.73Zm.86,31.39q1.58,0,3-.07a20.6,20.6,0,0,0,2.3-.22V42.7q-.65-.14-1.94-.29a21.74,21.74,0,0,0-2.38-.14,21.4,21.4,0,0,0-2.84.18,7.45,7.45,0,0,0-2.34.68,4,4,0,0,0-1.58,1.37,3.81,3.81,0,0,0-.58,2.16,3.68,3.68,0,0,0,1.69,3.49A9.35,9.35,0,0,0,263.5,51.13Z" transform="translate(-2.28 -2.74)"/><path class="cls-2" d="M324,39.68a27.75,27.75,0,0,1-1.08,8,18,18,0,0,1-3.17,6.19,14.31,14.31,0,0,1-5.18,4,16.73,16.73,0,0,1-7.13,1.44,19.22,19.22,0,0,1-4.18-.43,20,20,0,0,1-3.74-1.22V71.93H288.84V22q1.44-.43,3.31-.83t3.92-.68q2.05-.29,4.18-.47t4.07-.18a23.26,23.26,0,0,1,8.35,1.4,17.19,17.19,0,0,1,6.19,4,17,17,0,0,1,3.85,6.23A24,24,0,0,1,324,39.68ZM313.1,40a13,13,0,0,0-2.23-8,7.75,7.75,0,0,0-6.62-3q-1.44,0-2.66.11c-.82.07-1.49.16-2,.25V48.75a9.34,9.34,0,0,0,2.63,1.08,12.65,12.65,0,0,0,3.28.43Q313.1,50.26,313.1,40Z" transform="translate(-2.28 -2.74)"/><path class="cls-2" d="M367.53,39.68a27.75,27.75,0,0,1-1.08,8,18,18,0,0,1-3.17,6.19,14.31,14.31,0,0,1-5.18,4A16.73,16.73,0,0,1,351,59.33a19.22,19.22,0,0,1-4.18-.43,20,20,0,0,1-3.74-1.22V71.93H332.33V22q1.44-.43,3.31-.83t3.92-.68q2.05-.29,4.18-.47t4.07-.18a23.26,23.26,0,0,1,8.35,1.4,17.19,17.19,0,0,1,6.19,4,17,17,0,0,1,3.85,6.23A24,24,0,0,1,367.53,39.68ZM356.59,40a13,13,0,0,0-2.23-8,7.75,7.75,0,0,0-6.62-3q-1.44,0-2.66.11c-.82.07-1.49.16-2,.25V48.75a9.34,9.34,0,0,0,2.63,1.08,12.65,12.65,0,0,0,3.28.43Q356.59,50.26,356.59,40Z" transform="translate(-2.28 -2.74)"/></svg>